<?xml version="1.0" encoding="UTF-8"?>
<svg width="29px" height="29px" viewBox="0 0 29 29" version="1.1" xmlns="http://www.w3.org/2000/svg" xmlns:xlink="http://www.w3.org/1999/xlink">
    <!-- Generator: Sketch 42 (36781) - http://www.bohemiancoding.com/sketch -->
    <title>500px</title>
    <desc>Created with Sketch.</desc>
    <defs>
        <polygon id="path-1" points="1.53524722e-21 1.1328125e-05 1.53524722e-21 29 28.9999887 29 28.9999887 1.1328125e-05 0 1.1328125e-05"></polygon>
    </defs>
    <g id="Welcome" stroke="none" stroke-width="1" fill="none" fill-rule="evenodd" opacity="0.704030797">
        <g id="Desktop-HD" transform="translate(-240.000000, -879.000000)">
            <g id="Icons" transform="translate(92.000000, 878.000000)">
                <g id="500px" transform="translate(148.000000, 1.000000)">
                    <path d="M21.4606004,14.2080572 C20.9895203,14.2703619 20.6011355,14.5035514 20.2344441,14.7842057 C19.8262352,15.097485 19.4838426,15.4795826 19.131368,15.8507486 C19.0839031,15.9005924 19.1046902,15.9267037 19.1394109,15.9655592 C19.3873836,16.2432682 19.6428328,16.5129342 19.9332859,16.7461803 C20.4147879,17.1341686 20.9363348,17.4323248 21.5715594,17.491401 C22.287157,17.5581236 22.866534,17.2229244 23.1228895,16.5746158 C23.2115887,16.3503756 23.2486316,16.1157135 23.2498211,15.8415729 C23.252823,15.7733209 23.2412117,15.6724439 23.2288074,15.571567 C23.1160926,14.6714908 22.3583543,14.0893951 21.4606004,14.2080572" id="Fill-1" fill="#FFFFFF"></path>
                    <path d="M15.488226,14.7616854 C15.1832162,14.5418631 14.8622338,14.3460564 14.4925971,14.2540721 C13.930099,14.1149061 13.418351,14.1947127 13.0184115,14.6524822 C12.7080775,15.0076189 12.5600189,15.4280057 12.560642,15.9290486 C12.5642104,15.9738514 12.5680619,16.0480506 12.5745756,16.1219666 C12.6354076,16.8190994 13.1005971,17.3424021 13.7752436,17.4655389 C14.1457865,17.5335076 14.5059643,17.4840037 14.8557201,17.3480662 C15.6018471,17.0576131 16.1709154,16.5345936 16.6906498,15.9468904 C16.728599,15.9035604 16.7096244,15.88249 16.6799447,15.8513377 C16.3076459,15.4612537 15.9279271,15.0782498 15.488226,14.7616854" id="Fill-3" fill="#FFFFFF"></path>
                    <g id="Group-7">
                        <mask id="mask-2" fill="white">
                            <use xlink:href="#path-1"></use>
                        </mask>
                        <g id="Clip-6"></g>
                        <path d="M21.6560785,19.4767398 C20.7387836,19.4660914 19.9564633,19.1106148 19.2420551,18.5689039 C18.7759594,18.2152965 18.3763598,17.7904352 17.9916,17.3522066 C17.9268598,17.2786305 17.8972367,17.262318 17.8189027,17.3439371 C17.4261,17.7518629 17.0528383,18.1802359 16.6114379,18.5395074 C16.0534145,18.9937652 15.4375043,19.3351949 14.716016,19.4330699 C13.4402992,19.6063902 12.3384125,19.2702281 11.4822328,18.2695582 C11.288182,18.042316 11.1419359,17.7838648 11.0218012,17.5103473 C11.0063383,17.4762496 11.0022035,17.4343922 10.9630082,17.4053355 C10.7951254,17.7681754 10.5868578,18.1019586 10.3139066,18.3917887 C9.62651602,19.1227926 8.77832266,19.503984 7.77765273,19.5392711 C7.05435195,19.5648727 6.34589102,19.4726051 5.68608437,19.1598355 C4.58096914,18.6359098 3.97338516,17.7640406 3.89805312,16.5330699 C3.89210586,16.4393863 3.91816055,16.4155973 4.01133437,16.4159371 C4.60560781,16.4200719 5.20010781,16.4200719 5.79432461,16.4159371 C5.88364687,16.4153141 5.90856875,16.4414254 5.9236918,16.528652 C6.03821914,17.20715 6.40287148,17.679193 7.08641055,17.8488883 C8.04018203,18.0853629 8.91629922,17.5447848 9.16693398,16.5628063 C9.33549648,15.9018102 9.26276992,15.2704371 8.82459805,14.7201168 C8.53414492,14.354898 8.13901992,14.1769332 7.67530312,14.1442516 C7.00807656,14.0974098 6.46217422,14.317232 6.06818203,14.8711207 C6.03170547,14.9233434 5.98871523,14.9360875 5.92963906,14.9355211 C5.39387539,14.9340484 4.85833828,14.9325191 4.32257461,14.9367105 C4.22968398,14.937277 4.21042617,14.9112223 4.22645547,14.8224664 C4.50444766,13.2770836 4.7800043,11.7311344 5.05595742,10.1851852 C5.09362344,9.97363242 5.13247891,9.76207969 5.16691641,9.55030039 C5.17818789,9.48085898 5.20486562,9.45503086 5.27991445,9.45531406 C7.05910977,9.45769297 8.83796523,9.45769297 10.6171039,9.45531406 C10.7019516,9.45503086 10.720643,9.48295469 10.7200766,9.56242148 C10.7161684,10.0391656 10.7153187,10.5165328 10.720643,10.993277 C10.721266,11.0905855 10.6966273,11.1170367 10.5978461,11.1166969 C9.32331875,11.1134684 8.04879141,11.1158473 6.77398086,11.1122789 C6.66834609,11.1119391 6.62122109,11.129441 6.60134023,11.248443 C6.489475,11.9266578 6.36548867,12.6030602 6.24676992,13.2803688 C6.2414457,13.3091422 6.22128164,13.3482809 6.25271719,13.3669723 C6.28715469,13.3880426 6.3066957,13.346525 6.32691641,13.3266441 C6.91105117,12.7641461 7.62336367,12.5924117 8.40925234,12.6344957 C9.16517812,12.6748805 9.81042812,12.9584801 10.3426801,13.4960563 C10.5648812,13.7203531 10.7375785,13.9796539 10.8769711,14.2620641 C10.8920941,14.2929332 10.9078402,14.3234625 10.934518,14.3774977 C11.0849555,13.9807867 11.2706801,13.6348824 11.5341156,13.3352535 C12.1117934,12.6783922 12.841891,12.3241617 13.709682,12.2440719 C14.9325531,12.1310738 15.9376977,12.6033434 16.8173266,13.4061676 C17.1819789,13.7387047 17.5047172,14.1113434 17.8215648,14.4887398 C17.8895336,14.5691129 17.9189301,14.576193 17.9900707,14.4916852 C18.3980531,14.006898 18.8044496,13.5203551 19.306682,13.1260797 C19.8858324,12.6721617 20.5240023,12.3443824 21.263559,12.2577223 C23.092598,12.0435074 24.621102,13.0394762 25.0106195,14.9275348 C25.1740844,15.721693 25.124184,16.5069586 24.8486273,17.2718336 C24.3389184,18.6872828 23.1607934,19.494525 21.6560785,19.4767398 M14.4999887,1.1328125e-05 C6.49213711,1.1328125e-05 -1.13281251e-05,6.49187656 -1.13281251e-05,14.5000113 C-1.13281251e-05,22.5082027 6.49213711,29.0000113 14.4999887,29.0000113 C22.5078402,29.0000113 28.9999887,22.5082027 28.9999887,14.5000113 C28.9999887,6.49187656 22.5078402,1.1328125e-05 14.4999887,1.1328125e-05" id="Fill-5" fill="#FFFFFF" mask="url(#mask-2)"></path>
                    </g>
                </g>
            </g>
        </g>
    </g>
</svg>