<?xml version="1.0" encoding="UTF-8"?>
<svg width="30px" height="29px" viewBox="0 0 30 29" version="1.1" xmlns="http://www.w3.org/2000/svg" xmlns:xlink="http://www.w3.org/1999/xlink">
    <!-- Generator: Sketch 42 (36781) - http://www.bohemiancoding.com/sketch -->
    <title>Github</title>
    <desc>Created with Sketch.</desc>
    <defs></defs>
    <g id="Welcome" stroke="none" stroke-width="1" fill="none" fill-rule="evenodd" fill-opacity="0.75">
        <g id="Desktop-HD" transform="translate(-92.000000, -879.000000)" fill="#FFFFFF">
            <g id="Icons" transform="translate(92.000000, 878.000000)">
                <path d="M2.83318612,24.386945 C4.69939351,26.9657452 7.15379497,28.7538973 10.1255608,29.7176913 C10.4720102,29.7866432 10.7137549,29.7514011 10.8862097,29.5797876 C11.0586645,29.4418838 11.1279544,29.2365604 11.1279544,29.0297048 L11.1279544,27.9969589 L11.1279544,26.2777587 L10.6783401,26.3467106 C10.4027204,26.4156625 10.056271,26.4156625 9.60819642,26.4156625 C9.19245715,26.4156625 8.74284284,26.3819527 8.25935346,26.2777587 C7.80973914,26.2088068 7.3616646,26.0034835 6.98134016,25.6939661 C6.56560089,25.4181586 6.28998115,25.0059796 6.11752634,24.5233165 L5.94353176,24.0774277 C5.80649178,23.8016201 5.59862215,23.458393 5.32146263,23.1136336 C5.0458429,22.7351644 4.76868339,22.494599 4.49306365,22.3919373 L4.35448389,22.2892756 C4.25131896,22.2203237 4.18202908,22.1513718 4.11273921,22.0471779 C4.04344933,21.9797583 3.97415945,21.8755643 3.93874462,21.7729026 C3.90486957,21.7039508 3.93874462,21.6349989 4.04344933,21.566047 C4.11273921,21.4970951 4.31906907,21.4633853 4.59622858,21.4633853 L4.97655302,21.5323372 C5.2182977,21.6012891 5.56320732,21.7376606 5.90965671,21.9797583 C6.28998115,22.2540335 6.60101572,22.5987929 6.87663545,22.9757299 C7.15379497,23.5273449 7.49870458,23.9042818 7.9483189,24.1800893 C8.36405817,24.4558969 8.77825766,24.5922683 9.19245715,24.5922683 C9.60819642,24.5922683 9.98698109,24.5585585 10.2995554,24.5233165 C10.6090502,24.4558969 10.8862097,24.3517029 11.1633692,24.2137991 C11.2665342,23.3541991 11.5775687,22.7014546 12.0964729,22.2540335 C11.3696991,22.1513718 10.7137549,22.0471779 10.1255608,21.9108064 C9.53890655,21.7376606 8.95071247,21.4970951 8.32864334,21.153868 C7.70657421,20.8091086 7.18767002,20.3632198 6.77347052,19.8805566 C6.35927103,19.3657159 6.01282164,18.6777294 5.7372019,17.8518391 C5.49545722,17.0259489 5.35687746,16.0636871 5.35687746,14.9635216 C5.35687746,13.4159349 5.87578166,12.1089138 6.87663545,11.007216 C6.39314608,9.83809858 6.46243596,8.53107741 7.01521521,7.08768475 C7.39553965,6.9834908 7.9483189,7.08768475 8.67509273,7.36196 C9.40032679,7.63776752 9.95310604,7.87833296 10.2995554,8.08365633 C10.6090502,8.29051197 10.8862097,8.46212553 11.0940794,8.63527136 C12.3028028,8.29051197 13.546941,8.1188984 14.8264941,8.1188984 C16.0706324,8.1188984 17.3147706,8.29051197 18.5250338,8.63527136 L19.2502679,8.15260821 C19.7337573,7.84309089 20.3558264,7.56881564 21.0133104,7.3282502 C21.7046694,7.05244268 22.2220338,6.9834908 22.5684832,7.08768475 C23.1551375,8.53107741 23.2244273,9.83809858 22.740938,11.007216 C23.7433315,12.1089138 24.2622357,13.4159349 24.2622357,14.9635216 C24.2622357,16.0636871 24.123656,17.0259489 23.8819113,17.8518391 C23.6047518,18.7114392 23.2598422,19.3657159 22.8441029,19.8805566 C22.4299034,20.3632198 21.9109992,20.8091086 21.2889301,21.153868 C20.666861,21.4970951 20.0447918,21.7376606 19.4581375,21.9108064 C18.8699435,22.0471779 18.2139993,22.1513718 17.4872254,22.2540335 C18.1447094,22.8041163 18.489619,23.7326683 18.489619,24.9707375 L18.489619,29.0297048 C18.489619,29.2365604 18.5589089,29.4418838 18.7313637,29.5797876 C18.9053583,29.7514011 19.147103,29.7866432 19.4920126,29.7176913 C22.4637785,28.7538973 24.9181799,26.9657452 26.7843873,24.386945 C28.6860095,21.8418545 29.6191132,18.9520047 29.6191132,15.7541698 C29.6191132,13.0711756 28.9616293,10.595037 27.6482011,8.32575404 C26.3008979,6.09018091 24.5039804,4.30049659 22.2574486,2.95976562 C19.975502,1.65274445 17.4872254,1 14.8264941,1 C12.130348,1 9.64207147,1.65274445 7.3616646,2.95976562 C5.11513278,4.30049659 3.31821527,6.09018091 1.96937231,8.32575404 C0.655944179,10.595037 -3.37507799e-14,13.0711756 -3.37507799e-14,15.7541698 C-3.37507799e-14,18.9520047 0.933103691,21.8418545 2.83318612,24.386945" id="Github"></path>
            </g>
        </g>
    </g>
</svg>