<?xml version="1.0" encoding="UTF-8"?>
<svg width="30px" height="30px" viewBox="0 0 30 30" version="1.1" xmlns="http://www.w3.org/2000/svg" xmlns:xlink="http://www.w3.org/1999/xlink">
    <!-- Generator: Sketch 42 (36781) - http://www.bohemiancoding.com/sketch -->
    <title>Combined Shape</title>
    <desc>Created with Sketch.</desc>
    <defs></defs>
    <g id="Welcome" stroke="none" stroke-width="1" fill="none" fill-rule="evenodd" fill-opacity="0.75">
        <g id="Desktop-HD" transform="translate(-136.000000, -878.000000)" fill="#FFFFFF">
            <g id="Icons" transform="translate(92.000000, 878.000000)">
                <path d="M59,30 C50.7157288,30 44,23.2842712 44,15 C44,6.71572875 50.7157288,0 59,0 C67.2842712,0 74,6.71572875 74,15 C74,23.2842712 67.2842712,30 59,30 Z M50.7626226,13.3383573 L50.7626226,25.1041897 L51.9546581,25.1041897 L51.9546581,13.3383573 L50.7626226,13.3383573 Z M65.4643944,25.0379655 C66.7005794,25.0379655 67.3186719,24.4640225 67.3186719,23.3161364 L67.3186719,11.0646599 L57.3188181,11.0646599 L57.3188181,12.1683965 L66.1487111,12.1683965 L66.1487111,23.0070901 C66.1487111,23.6472574 65.8396648,23.9783784 65.2436471,23.9783784 L63.0582485,23.9342289 L63.3452201,25.0379655 L65.4643944,25.0379655 Z M62.946829,18.0513127 L62.946829,15.0592885 L55.2648221,15.0592885 L55.2648221,18.0513127 L58.5748673,18.0513127 L62.946829,18.0513127 Z M63.0654061,22.4856067 L63.0654061,19.4935825 L55.3833992,19.4935825 L55.3833992,22.4856067 L58.6934444,22.4856067 L63.0654061,22.4856067 Z M52.6610496,10.2037453 L51.7780603,10.7556136 C52.9259464,11.7269019 53.8310104,12.6319659 54.4932524,13.4708057 L55.3983164,12.8306385 C54.7581491,12.0800976 53.8530851,11.1971083 52.6610496,10.2037453 Z M52.1974802,7.70930056 L53.9855335,7.70930056 C54.603626,8.61436459 55.1554943,9.54150336 55.6190637,10.5127916 L56.7007256,10.1154464 C56.3475299,9.38698023 55.8618858,8.59228986 55.2437933,7.70930056 L58.8640494,7.70930056 L58.8640494,6.62763867 L52.7493485,6.62763867 C52.9700958,6.14199456 53.1687684,5.63427571 53.367441,5.10448214 L52.2195549,4.86166008 C51.5793877,6.7159376 50.5860247,8.39361727 49.2173913,9.85054961 L50.232829,10.5127916 C50.9833699,9.67395175 51.6235371,8.72473826 52.1974802,7.70930056 Z M61.5792415,7.70930056 L63.4997432,7.70930056 C64.1399104,8.5481404 64.6917787,9.43112969 65.1332734,10.3361937 L66.2149353,9.93884854 C65.8617396,9.25453183 65.3760954,8.50399093 64.7800777,7.70930056 L68.7535295,7.70930056 L68.7535295,6.62763867 L62.0648856,6.62763867 C62.2635582,6.14199456 62.440156,5.63427571 62.6167539,5.12655687 L61.4909425,4.88373481 C60.961149,6.58348921 60.1443839,8.10664575 59.0406472,9.45320443 L60.0340102,10.0933717 C60.6079532,9.38698023 61.1156721,8.59228986 61.5792415,7.70930056 Z" id="Combined-Shape"></path>
            </g>
        </g>
    </g>
</svg>