<?xml version="1.0" encoding="UTF-8"?>
<svg width="30px" height="30px" viewBox="0 0 30 30" version="1.1" xmlns="http://www.w3.org/2000/svg" xmlns:xlink="http://www.w3.org/1999/xlink">
    <!-- Generator: Sketch 42 (36781) - http://www.bohemiancoding.com/sketch -->
    <title>Medium</title>
    <desc>Created with Sketch.</desc>
    <defs></defs>
    <g id="Welcome" stroke="none" stroke-width="1" fill="none" fill-rule="evenodd" fill-opacity="0.75">
        <g id="Desktop-HD" transform="translate(-188.000000, -878.000000)" fill="#FFFFFF">
            <g id="Icons" transform="translate(92.000000, 878.000000)">
                <path d="M111,30 C102.715729,30 96,23.2842712 96,15 C96,6.71572875 102.715729,0 111,0 C119.284271,0 126,6.71572875 126,15 C126,23.2842712 119.284271,30 111,30 Z M102.315819,7.49356042 L102.315819,7.49356042 L102.178424,7.42733744 C101.780133,7.23520875 101.454545,7.42925234 101.454545,7.85819079 L101.454545,19.8722973 C101.454545,20.1946394 101.698578,20.575067 101.99698,20.7180464 L107.083095,23.1691233 C107.580643,23.4091246 107.987153,23.1665701 107.987153,22.630397 L107.987153,17.310156 L114.51976,20.4582578 L114.520532,20.4570484 L119.967498,23.0823143 C120.566832,23.3759329 121.053,23.1716765 121.053,22.6355035 L121.053,10.316289 C121.051808,10.283295 121.039212,10.2524382 121.018307,10.2285073 C121.012525,10.2117189 120.999829,10.1965745 120.98156,10.1873521 L115.061563,7.33414545 C114.764425,7.19371917 114.377513,7.30223039 114.201759,7.57669993 L110.248525,13.7675323 L108.001694,10.248629 C107.992264,10.2339785 107.979181,10.2220911 107.963761,10.2141608 L102.358603,7.51414641 L102.358603,7.51350811 C102.344059,7.50650244 102.329797,7.49985437 102.315819,7.49356042 Z" id="Medium"></path>
            </g>
        </g>
    </g>
</svg>